<svg xmlns="http://www.w3.org/2000/svg" version="1.1" width="96" height="96" viewbox="0 0 96 96"><rect x="0" y="0" width="96" height="96" fill="#FFFFFF"></rect><g transform="translate(34.032, 65.112)"><path d="M18.24-34.7L18.24-34.7Q20.64-34.7 22.75-34.18 24.86-33.65 26.83-32.5L26.83-32.5 25.06-29.04Q23.71-29.76 21.91-30.38 20.11-31.01 18.24-31.01L18.24-31.01Q10.94-31.01 9.17-21.84L9.17-21.84 20.88-21.84 20.88-18.72 8.83-18.72Q8.78-18.24 8.78-17.81 8.78-17.38 8.78-16.9L8.78-16.9Q8.78-16.46 8.78-15.96 8.78-15.46 8.83-14.93L8.83-14.93 19.44-14.93 19.44-11.81 9.22-11.81Q10.03-7.73 12.36-5.5 14.69-3.26 18.62-3.26L18.62-3.26Q20.5-3.26 22.39-3.72 24.29-4.18 25.78-4.8L25.78-4.8 25.78-1.06Q24.29-0.43 22.49 0.02 20.69 0.48 18.38 0.48L18.38 0.48Q12.58 0.48 9.29-2.83 6-6.14 4.94-11.81L4.94-11.81 1.1-11.81 1.1-14.93 4.56-14.93Q4.51-15.5 4.51-15.89 4.51-16.27 4.51-16.9L4.51-16.9Q4.51-17.42 4.54-17.93 4.56-18.43 4.56-18.72L4.56-18.72 1.1-18.72 1.1-21.84 4.9-21.84Q5.81-27.74 9.17-31.22 12.53-34.7 18.24-34.7Z" fill="#404040"></path></g></svg>